<svg xmlns="http://www.w3.org/2000/svg" xmlns:xlink="http://www.w3.org/1999/xlink" width="250" zoomAndPan="magnify" viewBox="0 0 187.5 187.499992" height="250" preserveAspectRatio="xMidYMid meet" version="1.0"><defs><g/><clipPath id="643ee6bb0a"><path d="M 79.519531 32.296875 L 107.535156 32.296875 L 107.535156 165.835938 L 79.519531 165.835938 Z M 79.519531 32.296875 " clip-rule="nonzero"/></clipPath><clipPath id="5ff4d3189d"><path d="M 0.519531 0.296875 L 28.535156 0.296875 L 28.535156 133.835938 L 0.519531 133.835938 Z M 0.519531 0.296875 " clip-rule="nonzero"/></clipPath><clipPath id="8b5a8b2844"><rect x="0" width="29" y="0" height="134"/></clipPath><clipPath id="69a498e2ea"><path d="M 1 0.511719 L 38 0.511719 L 38 7 L 1 7 Z M 1 0.511719 " clip-rule="nonzero"/></clipPath><clipPath id="831dcb87cb"><path d="M 46 0.511719 L 65 0.511719 L 65 7 L 46 7 Z M 46 0.511719 " clip-rule="nonzero"/></clipPath><clipPath id="a06e21eb0b"><rect x="0" width="66" y="0" height="9"/></clipPath><clipPath id="b7ca35d524"><path d="M 110.902344 42.527344 L 127.113281 42.527344 L 127.113281 165.835938 L 110.902344 165.835938 Z M 110.902344 42.527344 " clip-rule="nonzero"/></clipPath><clipPath id="a03dfca076"><path d="M 0.902344 0.527344 L 17.113281 0.527344 L 17.113281 123.835938 L 0.902344 123.835938 Z M 0.902344 0.527344 " clip-rule="nonzero"/></clipPath><clipPath id="6f217e5aa8"><rect x="0" width="18" y="0" height="124"/></clipPath><clipPath id="db32051b90"><path d="M 130.480469 52.277344 L 146.691406 52.277344 L 146.691406 138.007812 L 130.480469 138.007812 Z M 130.480469 52.277344 " clip-rule="nonzero"/></clipPath><clipPath id="f0c38af04e"><path d="M 0.480469 0.277344 L 16.691406 0.277344 L 16.691406 86.007812 L 0.480469 86.007812 Z M 0.480469 0.277344 " clip-rule="nonzero"/></clipPath><clipPath id="69f0a8f50f"><rect x="0" width="17" y="0" height="87"/></clipPath><clipPath id="36c647f2a2"><path d="M 150.0625 79.5625 L 159.578125 79.5625 L 159.578125 115.03125 L 150.0625 115.03125 Z M 150.0625 79.5625 " clip-rule="nonzero"/></clipPath><clipPath id="103ddba57f"><path d="M 0.0625 0.5625 L 9.578125 0.5625 L 9.578125 36.03125 L 0.0625 36.03125 Z M 0.0625 0.5625 " clip-rule="nonzero"/></clipPath><clipPath id="b83956682a"><rect x="0" width="10" y="0" height="37"/></clipPath><clipPath id="84dd8ba30c"><path d="M 59.886719 42.527344 L 76.097656 42.527344 L 76.097656 165.835938 L 59.886719 165.835938 Z M 59.886719 42.527344 " clip-rule="nonzero"/></clipPath><clipPath id="2c8f16c9dc"><path d="M 0.886719 0.527344 L 17.097656 0.527344 L 17.097656 123.835938 L 0.886719 123.835938 Z M 0.886719 0.527344 " clip-rule="nonzero"/></clipPath><clipPath id="856f413fb4"><rect x="0" width="18" y="0" height="124"/></clipPath><clipPath id="0215bb31ad"><path d="M 40.308594 52.277344 L 56.519531 52.277344 L 56.519531 138.007812 L 40.308594 138.007812 Z M 40.308594 52.277344 " clip-rule="nonzero"/></clipPath><clipPath id="e74de33136"><path d="M 0.308594 0.277344 L 16.519531 0.277344 L 16.519531 86.007812 L 0.308594 86.007812 Z M 0.308594 0.277344 " clip-rule="nonzero"/></clipPath><clipPath id="bc350daf5b"><rect x="0" width="17" y="0" height="87"/></clipPath><clipPath id="06942e2abb"><path d="M 27.421875 79.5625 L 36.941406 79.5625 L 36.941406 115.03125 L 27.421875 115.03125 Z M 27.421875 79.5625 " clip-rule="nonzero"/></clipPath><clipPath id="94c1c5cb1f"><path d="M 0.421875 0.5625 L 9.941406 0.5625 L 9.941406 36.03125 L 0.421875 36.03125 Z M 0.421875 0.5625 " clip-rule="nonzero"/></clipPath><clipPath id="382e265687"><rect x="0" width="10" y="0" height="37"/></clipPath><clipPath id="42a4259aa7"><path d="M 81.109375 9.878906 L 105.988281 9.878906 L 105.988281 28.289062 L 81.109375 28.289062 Z M 81.109375 9.878906 " clip-rule="nonzero"/></clipPath><clipPath id="6531f0e602"><path d="M 93.527344 9.878906 L 105.945312 28.289062 L 81.109375 28.289062 Z M 93.527344 9.878906 " clip-rule="nonzero"/></clipPath><clipPath id="28f2bd58e1"><path d="M 0.109375 0.878906 L 24.988281 0.878906 L 24.988281 19.289062 L 0.109375 19.289062 Z M 0.109375 0.878906 " clip-rule="nonzero"/></clipPath><clipPath id="54e0887217"><path d="M 12.527344 0.878906 L 24.945312 19.289062 L 0.109375 19.289062 Z M 12.527344 0.878906 " clip-rule="nonzero"/></clipPath><clipPath id="4720e631ce"><rect x="0" width="25" y="0" height="20"/></clipPath></defs><g clip-path="url(#643ee6bb0a)"><g transform="matrix(1, 0, 0, 1, 79, 32)"><g clip-path="url(#8b5a8b2844)"><g clip-path="url(#5ff4d3189d)"><path fill="#7f00ff" d="M 0.519531 0.296875 L 28.535156 0.296875 L 28.535156 133.796875 L 0.519531 133.796875 Z M 0.519531 0.296875 " fill-opacity="1" fill-rule="nonzero"/></g></g></g></g><g transform="matrix(1, 0, 0, 1, 61, 168)"><g clip-path="url(#a06e21eb0b)"><g clip-path="url(#69a498e2ea)"><g fill="#b4b4b4" fill-opacity="1"><g transform="translate(0.736931, 6.595483)"><g><path d="M 3.703125 0.125 C 2.941406 0.125 2.328125 0.046875 1.859375 -0.109375 C 1.398438 -0.273438 1.050781 -0.5 0.8125 -0.78125 C 0.570312 -1.070312 0.410156 -1.40625 0.328125 -1.78125 L 2.8125 -1.78125 C 3 -1.507812 3.296875 -1.375 3.703125 -1.375 C 4.097656 -1.375 4.390625 -1.507812 4.578125 -1.78125 C 4.585938 -1.800781 4.59375 -1.820312 4.59375 -1.84375 C 4.59375 -1.914062 4.5 -1.96875 4.3125 -2 C 4.132812 -2.039062 3.859375 -2.066406 3.484375 -2.078125 C 3.023438 -2.097656 2.535156 -2.148438 2.015625 -2.234375 C 0.878906 -2.410156 0.3125 -2.867188 0.3125 -3.609375 C 0.3125 -3.671875 0.316406 -3.738281 0.328125 -3.8125 C 0.410156 -4.175781 0.570312 -4.5 0.8125 -4.78125 C 1.050781 -5.070312 1.398438 -5.296875 1.859375 -5.453125 C 2.328125 -5.617188 2.941406 -5.703125 3.703125 -5.703125 C 4.453125 -5.703125 5.054688 -5.617188 5.515625 -5.453125 C 5.984375 -5.296875 6.335938 -5.070312 6.578125 -4.78125 C 6.816406 -4.5 6.976562 -4.175781 7.0625 -3.8125 L 4.578125 -3.8125 C 4.390625 -4.070312 4.097656 -4.203125 3.703125 -4.203125 C 3.296875 -4.203125 3 -4.070312 2.8125 -3.8125 C 2.800781 -3.789062 2.796875 -3.769531 2.796875 -3.75 C 2.796875 -3.6875 2.882812 -3.640625 3.0625 -3.609375 C 3.238281 -3.578125 3.5 -3.550781 3.84375 -3.53125 C 4.195312 -3.507812 4.566406 -3.472656 4.953125 -3.421875 C 5.347656 -3.378906 5.71875 -3.300781 6.0625 -3.1875 C 6.40625 -3.070312 6.671875 -2.898438 6.859375 -2.671875 C 7.015625 -2.503906 7.09375 -2.285156 7.09375 -2.015625 C 7.09375 -1.941406 7.082031 -1.863281 7.0625 -1.78125 C 6.976562 -1.40625 6.816406 -1.070312 6.578125 -0.78125 C 6.335938 -0.5 5.984375 -0.273438 5.515625 -0.109375 C 5.054688 0.046875 4.453125 0.125 3.703125 0.125 Z M 3.703125 0.125 "/></g></g><g transform="translate(8.131297, 6.595483)"><g><path d="M 2.96875 0 L 0.625 0 L 0.625 -5.59375 L 2.96875 -5.59375 Z M 2.96875 0 "/></g></g><g transform="translate(11.723292, 6.595483)"><g><path d="M 8.921875 0 L 6.125 0 L 2.96875 -3.78125 L 2.96875 0 L 0.625 0 L 0.625 -5.59375 L 3.421875 -5.59375 L 6.578125 -1.828125 L 6.578125 -5.59375 L 8.921875 -5.59375 Z M 8.921875 0 "/></g></g><g transform="translate(21.264284, 6.595483)"><g><path d="M 3.703125 0.125 C 2.941406 0.125 2.328125 0.046875 1.859375 -0.109375 C 1.398438 -0.273438 1.050781 -0.5 0.8125 -0.78125 C 0.570312 -1.070312 0.410156 -1.40625 0.328125 -1.78125 L 2.8125 -1.78125 C 3 -1.507812 3.296875 -1.375 3.703125 -1.375 C 4.097656 -1.375 4.390625 -1.507812 4.578125 -1.78125 C 4.585938 -1.800781 4.59375 -1.820312 4.59375 -1.84375 C 4.59375 -1.914062 4.5 -1.96875 4.3125 -2 C 4.132812 -2.039062 3.859375 -2.066406 3.484375 -2.078125 C 3.023438 -2.097656 2.535156 -2.148438 2.015625 -2.234375 C 0.878906 -2.410156 0.3125 -2.867188 0.3125 -3.609375 C 0.3125 -3.671875 0.316406 -3.738281 0.328125 -3.8125 C 0.410156 -4.175781 0.570312 -4.5 0.8125 -4.78125 C 1.050781 -5.070312 1.398438 -5.296875 1.859375 -5.453125 C 2.328125 -5.617188 2.941406 -5.703125 3.703125 -5.703125 C 4.453125 -5.703125 5.054688 -5.617188 5.515625 -5.453125 C 5.984375 -5.296875 6.335938 -5.070312 6.578125 -4.78125 C 6.816406 -4.5 6.976562 -4.175781 7.0625 -3.8125 L 4.578125 -3.8125 C 4.390625 -4.070312 4.097656 -4.203125 3.703125 -4.203125 C 3.296875 -4.203125 3 -4.070312 2.8125 -3.8125 C 2.800781 -3.789062 2.796875 -3.769531 2.796875 -3.75 C 2.796875 -3.6875 2.882812 -3.640625 3.0625 -3.609375 C 3.238281 -3.578125 3.5 -3.550781 3.84375 -3.53125 C 4.195312 -3.507812 4.566406 -3.472656 4.953125 -3.421875 C 5.347656 -3.378906 5.71875 -3.300781 6.0625 -3.1875 C 6.40625 -3.070312 6.671875 -2.898438 6.859375 -2.671875 C 7.015625 -2.503906 7.09375 -2.285156 7.09375 -2.015625 C 7.09375 -1.941406 7.082031 -1.863281 7.0625 -1.78125 C 6.976562 -1.40625 6.816406 -1.070312 6.578125 -0.78125 C 6.335938 -0.5 5.984375 -0.273438 5.515625 -0.109375 C 5.054688 0.046875 4.453125 0.125 3.703125 0.125 Z M 3.703125 0.125 "/></g></g><g transform="translate(28.65865, 6.595483)"><g/></g><g transform="translate(30.637753, 6.595483)"><g><path d="M 3.703125 0.125 C 2.941406 0.125 2.328125 0.046875 1.859375 -0.109375 C 1.398438 -0.273438 1.050781 -0.5 0.8125 -0.78125 C 0.570312 -1.070312 0.410156 -1.40625 0.328125 -1.78125 L 2.8125 -1.78125 C 3 -1.507812 3.296875 -1.375 3.703125 -1.375 C 4.097656 -1.375 4.390625 -1.507812 4.578125 -1.78125 C 4.585938 -1.800781 4.59375 -1.820312 4.59375 -1.84375 C 4.59375 -1.914062 4.5 -1.96875 4.3125 -2 C 4.132812 -2.039062 3.859375 -2.066406 3.484375 -2.078125 C 3.023438 -2.097656 2.535156 -2.148438 2.015625 -2.234375 C 0.878906 -2.410156 0.3125 -2.867188 0.3125 -3.609375 C 0.3125 -3.671875 0.316406 -3.738281 0.328125 -3.8125 C 0.410156 -4.175781 0.570312 -4.5 0.8125 -4.78125 C 1.050781 -5.070312 1.398438 -5.296875 1.859375 -5.453125 C 2.328125 -5.617188 2.941406 -5.703125 3.703125 -5.703125 C 4.453125 -5.703125 5.054688 -5.617188 5.515625 -5.453125 C 5.984375 -5.296875 6.335938 -5.070312 6.578125 -4.78125 C 6.816406 -4.5 6.976562 -4.175781 7.0625 -3.8125 L 4.578125 -3.8125 C 4.390625 -4.070312 4.097656 -4.203125 3.703125 -4.203125 C 3.296875 -4.203125 3 -4.070312 2.8125 -3.8125 C 2.800781 -3.789062 2.796875 -3.769531 2.796875 -3.75 C 2.796875 -3.6875 2.882812 -3.640625 3.0625 -3.609375 C 3.238281 -3.578125 3.5 -3.550781 3.84375 -3.53125 C 4.195312 -3.507812 4.566406 -3.472656 4.953125 -3.421875 C 5.347656 -3.378906 5.71875 -3.300781 6.0625 -3.1875 C 6.40625 -3.070312 6.671875 -2.898438 6.859375 -2.671875 C 7.015625 -2.503906 7.09375 -2.285156 7.09375 -2.015625 C 7.09375 -1.941406 7.082031 -1.863281 7.0625 -1.78125 C 6.976562 -1.40625 6.816406 -1.070312 6.578125 -0.78125 C 6.335938 -0.5 5.984375 -0.273438 5.515625 -0.109375 C 5.054688 0.046875 4.453125 0.125 3.703125 0.125 Z M 3.703125 0.125 "/></g></g></g></g><g fill="#b4b4b4" fill-opacity="1"><g transform="translate(37.486697, 6.595483)"><g><path d="M 9.390625 0 L 7.015625 0 L 6.484375 -0.921875 L 2.96875 -0.921875 L 2.4375 0 L 0.0625 0 L 3.640625 -5.59375 L 5.8125 -5.59375 Z M 5.703125 -2.296875 L 4.734375 -4 L 3.75 -2.296875 Z M 5.703125 -2.296875 "/></g></g></g><g clip-path="url(#831dcb87cb)"><g fill="#b4b4b4" fill-opacity="1"><g transform="translate(46.310849, 6.595483)"><g><path d="M 4.234375 0.125 C 2.847656 0.125 1.828125 -0.160156 1.171875 -0.734375 C 0.597656 -1.234375 0.3125 -1.921875 0.3125 -2.796875 C 0.3125 -3.660156 0.597656 -4.347656 1.171875 -4.859375 C 1.828125 -5.421875 2.847656 -5.703125 4.234375 -5.703125 C 5.015625 -5.703125 5.664062 -5.613281 6.1875 -5.4375 C 6.71875 -5.257812 7.128906 -5.019531 7.421875 -4.71875 C 7.722656 -4.414062 7.925781 -4.066406 8.03125 -3.671875 L 5.53125 -3.671875 C 5.257812 -4.023438 4.828125 -4.203125 4.234375 -4.203125 C 3.660156 -4.203125 3.242188 -4.039062 2.984375 -3.71875 C 2.765625 -3.457031 2.65625 -3.148438 2.65625 -2.796875 C 2.65625 -2.429688 2.765625 -2.125 2.984375 -1.875 C 3.242188 -1.539062 3.660156 -1.375 4.234375 -1.375 C 4.691406 -1.375 5.035156 -1.414062 5.265625 -1.5 C 5.492188 -1.582031 5.660156 -1.6875 5.765625 -1.8125 L 4.84375 -1.8125 L 4.84375 -2.796875 L 8.03125 -2.796875 L 8.03125 0 L 7.0625 0 L 6.859375 -0.53125 C 6.242188 -0.09375 5.367188 0.125 4.234375 0.125 Z M 4.234375 0.125 "/></g></g><g transform="translate(54.807747, 6.595483)"><g><path d="M 9.390625 0 L 7.015625 0 L 6.484375 -0.921875 L 2.96875 -0.921875 L 2.4375 0 L 0.0625 0 L 3.640625 -5.59375 L 5.8125 -5.59375 Z M 5.703125 -2.296875 L 4.734375 -4 L 3.75 -2.296875 Z M 5.703125 -2.296875 "/></g></g></g></g></g></g><g clip-path="url(#b7ca35d524)"><g transform="matrix(1, 0, 0, 1, 110, 42)"><g clip-path="url(#6f217e5aa8)"><g clip-path="url(#a03dfca076)"><path fill="#ff00ee" d="M 0.902344 0.527344 L 17.113281 0.527344 L 17.113281 123.816406 L 0.902344 123.816406 Z M 0.902344 0.527344 " fill-opacity="1" fill-rule="nonzero"/></g></g></g></g><g clip-path="url(#db32051b90)"><g transform="matrix(1, 0, 0, 1, 130, 52)"><g clip-path="url(#69f0a8f50f)"><g clip-path="url(#f0c38af04e)"><path fill="#00aaff" d="M 0.480469 0.277344 L 16.691406 0.277344 L 16.691406 86.019531 L 0.480469 86.019531 Z M 0.480469 0.277344 " fill-opacity="1" fill-rule="nonzero"/></g></g></g></g><g clip-path="url(#36c647f2a2)"><g transform="matrix(1, 0, 0, 1, 150, 79)"><g clip-path="url(#b83956682a)"><g clip-path="url(#103ddba57f)"><path fill="#ff2f2f" d="M 0.0625 0.5625 L 9.578125 0.5625 L 9.578125 36.035156 L 0.0625 36.035156 Z M 0.0625 0.5625 " fill-opacity="1" fill-rule="nonzero"/></g></g></g></g><g clip-path="url(#84dd8ba30c)"><g transform="matrix(1, 0, 0, 1, 59, 42)"><g clip-path="url(#856f413fb4)"><g clip-path="url(#2c8f16c9dc)"><path fill="#ffbc41" d="M 0.886719 0.527344 L 17.097656 0.527344 L 17.097656 123.816406 L 0.886719 123.816406 Z M 0.886719 0.527344 " fill-opacity="1" fill-rule="nonzero"/></g></g></g></g><g clip-path="url(#0215bb31ad)"><g transform="matrix(1, 0, 0, 1, 40, 52)"><g clip-path="url(#bc350daf5b)"><g clip-path="url(#e74de33136)"><path fill="#06c500" d="M 0.308594 0.277344 L 16.519531 0.277344 L 16.519531 86.019531 L 0.308594 86.019531 Z M 0.308594 0.277344 " fill-opacity="1" fill-rule="nonzero"/></g></g></g></g><g clip-path="url(#06942e2abb)"><g transform="matrix(1, 0, 0, 1, 27, 79)"><g clip-path="url(#382e265687)"><g clip-path="url(#94c1c5cb1f)"><path fill="#1f1fff" d="M 0.421875 0.5625 L 9.941406 0.5625 L 9.941406 36.035156 L 0.421875 36.035156 Z M 0.421875 0.5625 " fill-opacity="1" fill-rule="nonzero"/></g></g></g></g><g clip-path="url(#42a4259aa7)"><g clip-path="url(#6531f0e602)"><g transform="matrix(1, 0, 0, 1, 81, 9)"><g clip-path="url(#4720e631ce)"><g clip-path="url(#28f2bd58e1)"><g clip-path="url(#54e0887217)"><path fill="#7f00ff" d="M 0.109375 0.878906 L 24.917969 0.878906 L 24.917969 19.289062 L 0.109375 19.289062 Z M 0.109375 0.878906 " fill-opacity="1" fill-rule="nonzero"/></g></g></g></g></g></g></svg>